<?xml version="1.0" encoding="iso-8859-1"?>
<!-- Generator: Adobe Illustrator 19.0.0, SVG Export Plug-In . SVG Version: 6.00 Build 0)  -->
<svg version="1.1" id="Capa_1" xmlns="http://www.w3.org/2000/svg" xmlns:xlink="http://www.w3.org/1999/xlink" x="0px" y="0px"
	 viewBox="0 0 512 512" style="enable-background:new 0 0 512 512;" xml:space="preserve">
<path style="fill:#F5F0EB;" d="M445.984,122.161v333.362c0,31.143-25.334,56.477-56.467,56.477H122.48
	c-31.133,0-56.467-25.334-56.467-56.477V56.477C66.014,25.334,91.348,0,122.48,0h201.353c0.39,0,0.79,0,1.18,0.02
	c14.647,0.29,28.363,6.139,38.751,16.526l65.685,65.685C440.116,92.888,445.984,107.075,445.984,122.161z"/>
<path style="fill:#DCD2CD;" d="M445.984,122.161v333.362c0,31.143-25.334,56.477-56.467,56.477H255.999V0h67.834
	c0.39,0,0.79,0,1.18,0.02c14.647,0.29,28.363,6.139,38.751,16.526l65.685,65.685C440.116,92.888,445.984,107.075,445.984,122.161z"
	/>
<path style="fill:#C8BEB9;" d="M445.984,122.161v1.81h-87.619c-18.396,0-33.352-14.956-33.352-33.342V0.02
	c14.647,0.29,28.363,6.139,38.751,16.526l65.685,65.685C440.116,92.888,445.984,107.075,445.984,122.161z"/>
<path style="fill:#27D8F6;" d="M485.826,278.395v125.861c0,20.895-16.996,37.891-37.891,37.891H64.065
	c-20.895,0-37.891-16.996-37.891-37.891V278.395c0-20.895,16.996-37.891,37.891-37.891h383.87
	C468.83,240.504,485.826,257.5,485.826,278.395z"/>
<path style="fill:#3AAAFF;" d="M485.826,278.395v125.861c0,20.895-16.996,37.891-37.891,37.891H256V240.504h191.935
	C468.83,240.504,485.826,257.5,485.826,278.395z"/>
<g>
	<path style="fill:#FFFFFF;" d="M203.132,293.941c-6.618-5.699-15.436-8.558-26.424-8.558h-31.903c-2.669,0-4.829,0.72-6.468,2.16
		c-1.65,1.44-2.469,3.139-2.469,5.089v98.007c0,2.359,1.18,4.189,3.549,5.469c2.359,1.29,5.189,1.93,8.478,1.93
		c3.279,0,6.109-0.64,8.468-1.93c2.369-1.28,3.549-3.109,3.549-5.469v-33.282h15.256c11.397,0,20.565-2.909,27.504-8.708
		c6.938-5.809,10.408-14.817,10.408-27.044v-0.78C213.08,308.608,209.761,299.64,203.132,293.941z M189.036,323.444
		c0,10.278-4.619,15.416-13.867,15.416h-15.256v-32.512h15.256c9.248,0,13.867,5.139,13.867,15.406V323.444z"/>
	<path style="fill:#FFFFFF;" d="M288.892,294.171c-6.888-5.859-16.086-8.788-27.584-8.788h-27.274c-3.089,0-5.609,0.72-7.558,2.16
		s-2.929,3.139-2.929,5.089v98.157c0,1.96,0.98,3.649,2.929,5.089s4.469,2.159,7.558,2.159h27.274
		c11.497,0,20.695-2.929,27.584-8.788c6.878-5.859,10.318-15.046,10.318-27.584v-39.911
		C299.21,309.218,295.771,300.03,288.892,294.171z M275.176,361.665c0,10.278-4.619,15.406-13.867,15.406h-13.717v-70.723h13.717
		c9.248,0,13.867,5.139,13.867,15.406V361.665z"/>
</g>
<g>
	<path style="fill:#F5F0EB;" d="M383.81,288.472c-1.23-2.06-3.029-3.089-5.389-3.089h-53.467c-2.879,0-5.349,0.65-7.398,1.93
		c-2.06,1.29-3.089,3.109-3.089,5.469v97.857c0,2.359,1.18,4.189,3.549,5.469c2.359,1.29,5.189,1.93,8.478,1.93
		c3.279,0,6.109-0.64,8.468-1.93c2.369-1.28,3.549-3.109,3.549-5.469v-39.761h23.265c2.369,0,4.169-0.92,5.399-2.769
		c1.23-1.85,1.85-3.959,1.85-6.319c0-2.569-0.64-4.779-1.93-6.628c-1.28-1.85-3.059-2.779-5.319-2.779h-23.265v-26.034h39.911
		c2.259,0,4.029-1.03,5.319-3.089c1.28-2.049,1.92-4.569,1.92-7.548C385.66,292.941,385.05,290.522,383.81,288.472z"/>
	<path style="fill:#F5F0EB;" d="M299.21,321.755v39.911c0,12.537-3.439,21.725-10.318,27.584
		c-6.888,5.859-16.086,8.788-27.584,8.788H256v-20.965h5.309c9.248,0,13.867-5.129,13.867-15.406v-39.911
		c0-10.268-4.619-15.406-13.867-15.406H256v-20.965h5.309c11.497,0,20.695,2.929,27.584,8.788
		C295.771,300.03,299.21,309.218,299.21,321.755z"/>
</g>
<g>
</g>
<g>
</g>
<g>
</g>
<g>
</g>
<g>
</g>
<g>
</g>
<g>
</g>
<g>
</g>
<g>
</g>
<g>
</g>
<g>
</g>
<g>
</g>
<g>
</g>
<g>
</g>
<g>
</g>
</svg>
